<svg width="1280" height="379" viewBox="0 0 1280 379" fill="none" xmlns="http://www.w3.org/2000/svg">
<path fill-rule="evenodd" clip-rule="evenodd" d="M-172.781 333.461L-138.144 314.967C-99.728 296.553 -30.4538 259.566 41.5053 256.274C109.607 255.304 180.55 283.227 248.417 289.461C320.064 295.773 392.492 278.075 460.828 269.901C532.866 264.209 600.889 265.64 672.301 279.156C739.856 294.994 810.721 325.319 882.523 326.829C950.547 328.26 1023.29 300.957 1092.48 266.371C1165.54 229.463 1235.05 185.273 1273.62 162.056L1308.41 138.76L1299.27 419.695L1265.26 418.979C1227.46 418.184 1159.44 416.753 1087.64 415.242C1019.61 413.811 947.811 412.3 879.788 410.869C807.985 409.359 736.182 407.848 668.159 406.417C596.356 404.906 528.332 403.475 456.529 401.965C388.506 400.533 316.703 399.023 244.9 397.512C176.876 396.081 105.074 394.57 37.05 393.139C-34.7527 391.629 -102.776 390.198 -140.567 389.402L-174.579 388.687L-172.781 333.461Z" fill="url(#paint0_linear_63_970)"/>
<g filter="url(#filter0_d_63_970)">
<path fill-rule="evenodd" clip-rule="evenodd" d="M-11.4654 357.638L19.6431 343.449C54.1163 329.436 116.333 301.058 180.468 300.465C241.134 301.668 303.925 326.712 364.281 333.831C428.002 341.127 492.756 328.701 553.733 323.988C617.971 321.423 678.533 324.598 741.944 337.81C801.887 352.817 864.574 379.833 928.502 383.184C989.065 386.359 1054.23 366.046 1116.35 339.639C1181.93 311.438 1244.46 277.143 1279.14 259.186L1310.45 241.053L1298.35 471.785L1268.07 470.198C1234.43 468.434 1173.86 465.259 1109.94 461.908C1049.37 458.733 985.446 455.382 924.883 452.207C860.956 448.856 797.028 445.504 736.465 442.329C672.537 438.978 611.974 435.803 548.047 432.452C487.484 429.277 423.556 425.926 359.629 422.575C299.066 419.4 235.138 416.048 174.575 412.873C110.647 409.522 50.0844 406.347 16.4383 404.583L-13.8432 402.996L-11.4654 357.638Z" fill="url(#paint1_linear_63_970)"/>
<path fill-rule="evenodd" clip-rule="evenodd" d="M-11.4654 357.638L19.6431 343.449C54.1163 329.436 116.333 301.058 180.468 300.465C241.134 301.668 303.925 326.712 364.281 333.831C428.002 341.127 492.756 328.701 553.733 323.988C617.971 321.423 678.533 324.598 741.944 337.81C801.887 352.817 864.574 379.833 928.502 383.184C989.065 386.359 1054.23 366.046 1116.35 339.639C1181.93 311.438 1244.46 277.143 1279.14 259.186L1310.45 241.053L1298.35 471.785L1268.07 470.198C1234.43 468.434 1173.86 465.259 1109.94 461.908C1049.37 458.733 985.446 455.382 924.883 452.207C860.956 448.856 797.028 445.504 736.465 442.329C672.537 438.978 611.974 435.803 548.047 432.452C487.484 429.277 423.556 425.926 359.629 422.575C299.066 419.4 235.138 416.048 174.575 412.873C110.647 409.522 50.0844 406.347 16.4383 404.583L-13.8432 402.996L-11.4654 357.638Z" stroke="black"/>
</g>
<defs>
<filter id="filter0_d_63_970" x="-52.8433" y="200.053" width="1402.29" height="308.732" filterUnits="userSpaceOnUse" color-interpolation-filters="sRGB">
<feFlood flood-opacity="0" result="BackgroundImageFix"/>
<feColorMatrix in="SourceAlpha" type="matrix" values="0 0 0 0 0 0 0 0 0 0 0 0 0 0 0 0 0 0 127 0" result="hardAlpha"/>
<feOffset dy="-2"/>
<feGaussianBlur stdDeviation="19.5"/>
<feComposite in2="hardAlpha" operator="out"/>
<feColorMatrix type="matrix" values="0 0 0 0 0.968627 0 0 0 0 0.968627 0 0 0 0 0.968627 0 0 0 1 0"/>
<feBlend mode="normal" in2="BackgroundImageFix" result="effect1_dropShadow_63_970"/>
<feBlend mode="normal" in="SourceGraphic" in2="effect1_dropShadow_63_970" result="shape"/>
</filter>
<linearGradient id="paint0_linear_63_970" x1="571.489" y1="123.257" x2="565.577" y2="404.259" gradientUnits="userSpaceOnUse">
<stop stop-color="#F54874"/>
<stop offset="1" stop-color="#EB008B"/>
</linearGradient>
<linearGradient id="paint1_linear_63_970" x1="654.352" y1="206.658" x2="642.256" y2="437.391" gradientUnits="userSpaceOnUse">
<stop stop-color="#F54874"/>
<stop offset="1" stop-color="#EB008B"/>
</linearGradient>
</defs>
</svg>
