<svg width="369" height="16" viewBox="0 0 369 16" fill="none" xmlns="http://www.w3.org/2000/svg">
<rect y="6" width="132" height="3" fill="url(#paint0_linear_63_1001)"/>
<rect x="369" y="9" width="132" height="3" transform="rotate(-180 369 9)" fill="url(#paint1_linear_63_1001)"/>
<path d="M147.602 8.70508C147.602 9.36523 147.518 9.9668 147.35 10.5098C147.182 11.0488 146.932 11.5137 146.6 11.9043C146.271 12.291 145.863 12.5898 145.375 12.8008C144.887 13.0117 144.32 13.1172 143.676 13.1172C143.012 13.1172 142.432 13.0117 141.936 12.8008C141.443 12.5898 141.033 12.2891 140.705 11.8984C140.381 11.5078 140.137 11.041 139.973 10.498C139.812 9.95508 139.732 9.35352 139.732 8.69336C139.732 7.81836 139.877 7.05078 140.166 6.39062C140.455 5.73047 140.893 5.2168 141.479 4.84961C142.068 4.48242 142.807 4.29883 143.693 4.29883C144.541 4.29883 145.254 4.48047 145.832 4.84375C146.414 5.20703 146.854 5.71875 147.15 6.37891C147.451 7.03516 147.602 7.81055 147.602 8.70508ZM140.781 8.70508C140.781 9.43164 140.885 10.0605 141.092 10.5918C141.299 11.123 141.615 11.5332 142.041 11.8223C142.471 12.1113 143.016 12.2559 143.676 12.2559C144.34 12.2559 144.883 12.1113 145.305 11.8223C145.73 11.5332 146.045 11.123 146.248 10.5918C146.451 10.0605 146.553 9.43164 146.553 8.70508C146.553 7.59961 146.32 6.73633 145.855 6.11523C145.395 5.49023 144.674 5.17773 143.693 5.17773C143.029 5.17773 142.482 5.32031 142.053 5.60547C141.623 5.89062 141.303 6.29688 141.092 6.82422C140.885 7.34766 140.781 7.97461 140.781 8.70508ZM152.283 6.46094C152.412 6.46094 152.547 6.46875 152.688 6.48438C152.828 6.49609 152.953 6.51367 153.062 6.53711L152.939 7.43945C152.834 7.41211 152.717 7.39062 152.588 7.375C152.459 7.35938 152.338 7.35156 152.225 7.35156C151.967 7.35156 151.723 7.4043 151.492 7.50977C151.266 7.61133 151.066 7.75977 150.895 7.95508C150.723 8.14648 150.588 8.37891 150.49 8.65234C150.393 8.92188 150.344 9.22266 150.344 9.55469V13H149.365V6.57812H150.174L150.279 7.76172H150.32C150.453 7.52344 150.613 7.30664 150.801 7.11133C150.988 6.91211 151.205 6.75391 151.451 6.63672C151.701 6.51953 151.979 6.46094 152.283 6.46094ZM162.373 10.7207C162.373 11.2285 162.246 11.6621 161.992 12.0215C161.742 12.377 161.391 12.6484 160.938 12.8359C160.484 13.0234 159.951 13.1172 159.338 13.1172C159.014 13.1172 158.707 13.1016 158.418 13.0703C158.129 13.0391 157.863 12.9941 157.621 12.9355C157.379 12.877 157.166 12.8047 156.982 12.7188V11.7637C157.275 11.8848 157.633 11.998 158.055 12.1035C158.477 12.2051 158.918 12.2559 159.379 12.2559C159.809 12.2559 160.172 12.1992 160.469 12.0859C160.766 11.9688 160.99 11.8027 161.143 11.5879C161.299 11.3691 161.377 11.1074 161.377 10.8027C161.377 10.5098 161.312 10.2656 161.184 10.0703C161.055 9.87109 160.84 9.69141 160.539 9.53125C160.242 9.36719 159.836 9.19336 159.32 9.00977C158.957 8.88086 158.637 8.74023 158.359 8.58789C158.082 8.43164 157.85 8.25586 157.662 8.06055C157.475 7.86523 157.332 7.63867 157.234 7.38086C157.141 7.12305 157.094 6.82812 157.094 6.49609C157.094 6.03906 157.209 5.64844 157.439 5.32422C157.674 4.99609 157.996 4.74609 158.406 4.57422C158.82 4.39844 159.295 4.31055 159.83 4.31055C160.287 4.31055 160.709 4.35352 161.096 4.43945C161.486 4.52539 161.844 4.64062 162.168 4.78516L161.857 5.64062C161.549 5.51172 161.221 5.4043 160.873 5.31836C160.529 5.23242 160.174 5.18945 159.807 5.18945C159.439 5.18945 159.129 5.24414 158.875 5.35352C158.625 5.45898 158.434 5.60938 158.301 5.80469C158.168 6 158.102 6.23242 158.102 6.50195C158.102 6.80273 158.164 7.05273 158.289 7.25195C158.418 7.45117 158.621 7.62891 158.898 7.78516C159.18 7.9375 159.551 8.09766 160.012 8.26562C160.516 8.44922 160.943 8.64453 161.295 8.85156C161.646 9.05469 161.914 9.30469 162.098 9.60156C162.281 9.89453 162.373 10.2676 162.373 10.7207ZM164.951 6.57812V13H163.979V6.57812H164.951ZM164.477 4.17578C164.637 4.17578 164.773 4.22852 164.887 4.33398C165.004 4.43555 165.062 4.5957 165.062 4.81445C165.062 5.0293 165.004 5.18945 164.887 5.29492C164.773 5.40039 164.637 5.45312 164.477 5.45312C164.309 5.45312 164.168 5.40039 164.055 5.29492C163.945 5.18945 163.891 5.0293 163.891 4.81445C163.891 4.5957 163.945 4.43555 164.055 4.33398C164.168 4.22852 164.309 4.17578 164.477 4.17578ZM168.807 15.8828C167.963 15.8828 167.312 15.7246 166.855 15.4082C166.398 15.0957 166.17 14.6562 166.17 14.0898C166.17 13.6875 166.297 13.3438 166.551 13.0586C166.809 12.7734 167.164 12.584 167.617 12.4902C167.449 12.4121 167.305 12.2949 167.184 12.1387C167.066 11.9824 167.008 11.8027 167.008 11.5996C167.008 11.3652 167.072 11.1602 167.201 10.9844C167.334 10.8047 167.535 10.6328 167.805 10.4688C167.469 10.332 167.195 10.1016 166.984 9.77734C166.777 9.44922 166.674 9.06836 166.674 8.63477C166.674 8.17383 166.77 7.78125 166.961 7.45703C167.152 7.12891 167.43 6.87891 167.793 6.70703C168.156 6.53516 168.596 6.44922 169.111 6.44922C169.225 6.44922 169.338 6.45508 169.451 6.4668C169.568 6.47461 169.68 6.48828 169.785 6.50781C169.891 6.52344 169.982 6.54297 170.061 6.56641H172.264V7.19336L171.08 7.33984C171.197 7.49219 171.295 7.67578 171.373 7.89062C171.451 8.10547 171.49 8.34375 171.49 8.60547C171.49 9.24609 171.273 9.75586 170.84 10.1348C170.406 10.5098 169.811 10.6973 169.053 10.6973C168.873 10.6973 168.689 10.6816 168.502 10.6504C168.311 10.7559 168.164 10.873 168.062 11.002C167.965 11.1309 167.916 11.2793 167.916 11.4473C167.916 11.5723 167.953 11.6719 168.027 11.7461C168.105 11.8203 168.217 11.875 168.361 11.9102C168.506 11.9414 168.68 11.957 168.883 11.957H170.014C170.713 11.957 171.248 12.1035 171.619 12.3965C171.994 12.6895 172.182 13.1172 172.182 13.6797C172.182 14.3906 171.893 14.9355 171.314 15.3145C170.736 15.6934 169.9 15.8828 168.807 15.8828ZM168.836 15.1211C169.367 15.1211 169.807 15.0664 170.154 14.957C170.506 14.8516 170.768 14.6973 170.939 14.4941C171.115 14.2949 171.203 14.0566 171.203 13.7793C171.203 13.5215 171.145 13.3262 171.027 13.1934C170.91 13.0645 170.738 12.9785 170.512 12.9355C170.285 12.8887 170.008 12.8652 169.68 12.8652H168.566C168.277 12.8652 168.025 12.9102 167.811 13C167.596 13.0898 167.43 13.2227 167.312 13.3984C167.199 13.5742 167.143 13.793 167.143 14.0547C167.143 14.4023 167.289 14.666 167.582 14.8457C167.875 15.0293 168.293 15.1211 168.836 15.1211ZM169.088 9.98828C169.553 9.98828 169.902 9.87109 170.137 9.63672C170.371 9.40234 170.488 9.06055 170.488 8.61133C170.488 8.13086 170.369 7.77148 170.131 7.5332C169.893 7.29102 169.541 7.16992 169.076 7.16992C168.631 7.16992 168.287 7.29492 168.045 7.54492C167.807 7.79102 167.688 8.15234 167.688 8.62891C167.688 9.06641 167.809 9.40234 168.051 9.63672C168.293 9.87109 168.639 9.98828 169.088 9.98828ZM176.57 6.46094C177.332 6.46094 177.908 6.64844 178.299 7.02344C178.689 7.39453 178.885 7.99219 178.885 8.81641V13H177.924V8.88086C177.924 8.3457 177.801 7.94531 177.555 7.67969C177.312 7.41406 176.939 7.28125 176.436 7.28125C175.725 7.28125 175.225 7.48242 174.936 7.88477C174.646 8.28711 174.502 8.87109 174.502 9.63672V13H173.529V6.57812H174.314L174.461 7.50391H174.514C174.65 7.27734 174.824 7.08789 175.035 6.93555C175.246 6.7793 175.482 6.66211 175.744 6.58398C176.006 6.50195 176.281 6.46094 176.57 6.46094ZM180.344 10.2109V9.34375H183.25V10.2109H180.344ZM190.059 6.57812V13H189.262L189.121 12.0977H189.068C188.936 12.3203 188.764 12.5078 188.553 12.6602C188.342 12.8125 188.104 12.9258 187.838 13C187.576 13.0781 187.297 13.1172 187 13.1172C186.492 13.1172 186.066 13.0352 185.723 12.8711C185.379 12.707 185.119 12.4531 184.943 12.1094C184.771 11.7656 184.686 11.3242 184.686 10.7852V6.57812H185.67V10.7148C185.67 11.25 185.791 11.6504 186.033 11.916C186.275 12.1777 186.645 12.3086 187.141 12.3086C187.617 12.3086 187.996 12.2188 188.277 12.0391C188.562 11.8594 188.768 11.5957 188.893 11.248C189.018 10.8965 189.08 10.4668 189.08 9.95898V6.57812H190.059ZM195.133 6.46094C195.934 6.46094 196.572 6.73633 197.049 7.28711C197.525 7.83789 197.764 8.66602 197.764 9.77148C197.764 10.502 197.654 11.1152 197.436 11.6113C197.217 12.1074 196.908 12.4824 196.51 12.7363C196.115 12.9902 195.648 13.1172 195.109 13.1172C194.77 13.1172 194.471 13.0723 194.213 12.9824C193.955 12.8926 193.734 12.7715 193.551 12.6191C193.367 12.4668 193.215 12.3008 193.094 12.1211H193.023C193.035 12.2734 193.049 12.457 193.064 12.6719C193.084 12.8867 193.094 13.0742 193.094 13.2344V15.8711H192.115V6.57812H192.918L193.047 7.52734H193.094C193.219 7.33203 193.371 7.1543 193.551 6.99414C193.73 6.83008 193.949 6.70117 194.207 6.60742C194.469 6.50977 194.777 6.46094 195.133 6.46094ZM194.963 7.28125C194.518 7.28125 194.158 7.36719 193.885 7.53906C193.615 7.71094 193.418 7.96875 193.293 8.3125C193.168 8.65234 193.102 9.08008 193.094 9.5957V9.7832C193.094 10.3262 193.152 10.7852 193.27 11.1602C193.391 11.5352 193.588 11.8203 193.861 12.0156C194.139 12.2109 194.51 12.3086 194.975 12.3086C195.373 12.3086 195.705 12.2012 195.971 11.9863C196.236 11.7715 196.434 11.4727 196.562 11.0898C196.695 10.7031 196.762 10.2598 196.762 9.75977C196.762 9.00195 196.613 8.40039 196.316 7.95508C196.023 7.50586 195.572 7.28125 194.963 7.28125ZM212.459 4.43359L210.168 13H209.166L207.467 7.23438C207.416 7.07031 207.367 6.90625 207.32 6.74219C207.277 6.57422 207.236 6.41602 207.197 6.26758C207.158 6.11523 207.125 5.98242 207.098 5.86914C207.074 5.75195 207.057 5.66406 207.045 5.60547C207.037 5.66406 207.021 5.75 206.998 5.86328C206.979 5.97656 206.951 6.10742 206.916 6.25586C206.885 6.4043 206.846 6.5625 206.799 6.73047C206.756 6.89844 206.709 7.06836 206.658 7.24023L205.006 13H204.004L201.73 4.43359H202.768L204.145 9.80664C204.191 9.98633 204.234 10.1641 204.273 10.3398C204.316 10.5117 204.354 10.6797 204.385 10.8438C204.42 11.0078 204.451 11.168 204.479 11.3242C204.506 11.4805 204.531 11.6328 204.555 11.7812C204.574 11.6289 204.6 11.4707 204.631 11.3066C204.662 11.1387 204.695 10.9688 204.73 10.7969C204.77 10.625 204.811 10.4512 204.854 10.2754C204.9 10.0996 204.949 9.92383 205 9.74805L206.541 4.43359H207.566L209.172 9.78906C209.227 9.97266 209.277 10.1543 209.324 10.334C209.371 10.5137 209.412 10.6895 209.447 10.8613C209.486 11.0293 209.52 11.1914 209.547 11.3477C209.578 11.5 209.605 11.6445 209.629 11.7812C209.656 11.5898 209.689 11.3887 209.729 11.1777C209.768 10.9668 209.812 10.7461 209.863 10.5156C209.918 10.2852 209.977 10.0469 210.039 9.80078L211.416 4.43359H212.459ZM214.639 6.57812V13H213.666V6.57812H214.639ZM214.164 4.17578C214.324 4.17578 214.461 4.22852 214.574 4.33398C214.691 4.43555 214.75 4.5957 214.75 4.81445C214.75 5.0293 214.691 5.18945 214.574 5.29492C214.461 5.40039 214.324 5.45312 214.164 5.45312C213.996 5.45312 213.855 5.40039 213.742 5.29492C213.633 5.18945 213.578 5.0293 213.578 4.81445C213.578 4.5957 213.633 4.43555 213.742 4.33398C213.855 4.22852 213.996 4.17578 214.164 4.17578ZM218.775 12.3203C218.936 12.3203 219.1 12.3066 219.268 12.2793C219.436 12.252 219.572 12.2188 219.678 12.1797V12.9355C219.564 12.9863 219.406 13.0293 219.203 13.0645C219.004 13.0996 218.809 13.1172 218.617 13.1172C218.277 13.1172 217.969 13.0586 217.691 12.9414C217.414 12.8203 217.191 12.6172 217.023 12.332C216.859 12.0469 216.777 11.6523 216.777 11.1484V7.33984H215.863V6.86523L216.783 6.48438L217.17 5.08984H217.756V6.57812H219.637V7.33984H217.756V11.1191C217.756 11.5215 217.848 11.8223 218.031 12.0215C218.219 12.2207 218.467 12.3203 218.775 12.3203ZM221.951 3.88281V6.60742C221.951 6.76367 221.947 6.92188 221.939 7.08203C221.932 7.23828 221.918 7.38281 221.898 7.51562H221.963C222.096 7.28906 222.264 7.09961 222.467 6.94727C222.674 6.79102 222.908 6.67383 223.17 6.5957C223.432 6.51367 223.709 6.47266 224.002 6.47266C224.518 6.47266 224.947 6.55469 225.291 6.71875C225.639 6.88281 225.898 7.13672 226.07 7.48047C226.246 7.82422 226.334 8.26953 226.334 8.81641V13H225.373V8.88086C225.373 8.3457 225.25 7.94531 225.004 7.67969C224.762 7.41406 224.389 7.28125 223.885 7.28125C223.408 7.28125 223.027 7.37305 222.742 7.55664C222.461 7.73633 222.258 8.00195 222.133 8.35352C222.012 8.70508 221.951 9.13477 221.951 9.64258V13H220.979V3.88281H221.951Z" fill="#555252"/>
<defs>
<linearGradient id="paint0_linear_63_1001" x1="126.5" y1="6.99993" x2="30" y2="8.99988" gradientUnits="userSpaceOnUse">
<stop stop-color="#CA4365"/>
<stop offset="1" stop-color="#C4C4C4" stop-opacity="0"/>
</linearGradient>
<linearGradient id="paint1_linear_63_1001" x1="495.5" y1="9.99993" x2="399" y2="11.9999" gradientUnits="userSpaceOnUse">
<stop stop-color="#CA4365"/>
<stop offset="1" stop-color="#C4C4C4" stop-opacity="0"/>
</linearGradient>
</defs>
</svg>
