<svg width="120" height="52" viewBox="0 0 120 52" fill="none" xmlns="http://www.w3.org/2000/svg">
<circle cx="26" cy="26" r="25.8" fill="#ECE9EC" stroke="#F89AEE" stroke-width="0.4"/>
<g clip-path="url(#clip0_63_988)">
<path d="M40.9842 26.2806C40.9842 25.0515 40.8821 24.1546 40.6613 23.2245H26.2988V28.772H34.7292C34.5593 30.1506 33.6415 32.2268 31.6018 33.6219L31.5732 33.8076L36.1144 37.2453L36.429 37.276C39.3184 34.6683 40.9842 30.8315 40.9842 26.2806Z" fill="#4285F4"/>
<path d="M26.2989 40.8969C30.4291 40.8969 33.8964 39.5681 36.429 37.2761L31.6019 33.6219C30.3101 34.5022 28.5764 35.1168 26.2989 35.1168C22.2536 35.1168 18.8203 32.5092 17.5964 28.9049L17.417 28.9198L12.6951 32.4908L12.6333 32.6586C15.1488 37.5417 20.3159 40.8969 26.2989 40.8969Z" fill="#34A853"/>
<path d="M17.5962 28.905C17.2733 27.9749 17.0864 26.9782 17.0864 25.9485C17.0864 24.9187 17.2733 23.9221 17.5792 22.992L17.5707 22.7939L12.7896 19.1655L12.6331 19.2382C11.5964 21.2646 11.0015 23.5401 11.0015 25.9485C11.0015 28.3569 11.5964 30.6323 12.6331 32.6587L17.5962 28.905Z" fill="#FBBC05"/>
<path d="M26.2989 16.78C29.1713 16.78 31.1089 17.9925 32.2138 19.0058L36.531 14.8866C33.8796 12.4782 30.4291 11 26.2989 11C20.3159 11 15.1488 14.3551 12.6333 19.2382L17.5794 22.992C18.8203 19.3877 22.2536 16.78 26.2989 16.78Z" fill="#EB4335"/>
</g>
<circle cx="94" cy="26" r="25.8" fill="#ECE9EC" stroke="#F89AEE" stroke-width="0.4"/>
<path d="M94 41C102.284 41 109 34.2842 109 26C109 17.7157 102.284 11 94 11C85.7157 11 79 17.7157 79 26C79 34.2842 85.7157 41 94 41Z" fill="#1977F3"/>
<path d="M99.8386 30.3369L100.503 26H96.3434V23.186C96.3434 22.0005 96.9234 20.8425 98.7882 20.8425H100.68V17.151C100.68 17.151 98.9632 16.8578 97.3221 16.8578C93.8964 16.8578 91.6563 18.9334 91.6563 22.6945V26H87.8467V30.3369H91.6563V40.8185C92.4199 40.9388 93.2025 40.9999 93.9998 40.9999C94.7972 40.9999 95.5798 40.9367 96.3434 40.8185V30.3369H99.8386Z" fill="white"/>
<defs>
<clipPath id="clip0_63_988">
<rect width="30" height="30" fill="white" transform="translate(11 11)"/>
</clipPath>
</defs>
</svg>
